<svg id="Layer_1" data-name="Layer 1" xmlns="http://www.w3.org/2000/svg" viewBox="0 0 985.35 763.93">
    <style>
        path { fill: white; }
    </style>
    <path
        d="M3904.39,4823.69l-139.56-18c5.56-105.17,81.58-189,188.82-209,55.85-10.4,111.44-8.19,165.17,11.54,163.16,59.9,175.28,268.34,83,359.52-19.54,19.32-40.42,38.19-63.51,52.81-46.68,29.53-82.39,63.53-69.35,126.72H3935.05c-2.93-69.89-2.81-139.34,56.88-190.87,27.21-23.5,57.28-43.66,85.13-66.45,26.32-21.54,39.27-49.66,35.06-84.26-3.57-29.3-17.43-52.08-44-66-61.51-32.15-135.21-2.72-157.42,62.75C3908.54,4808.68,3906.92,4815.05,3904.39,4823.69Z"
        transform="translate(-3274.12 -4579.05)" />
    <path
        d="M3744.12,5239.31,3790.56,5094h-97.93c-5.37,53.79-44.49,87.72-76.4,126.21-16.48,19.87-32.38,40.22-48.78,60.16-13.91,16.91-33.5,21.16-49.31,11.14-16.65-10.55-21.15-31.18-11-50.89,2.74-5.32,5.78-10.49,9.65-17.47-5.08-1.24-9.28-2.64-13.59-3.26-57-8.24-95.8-44.29-109-100.33-1.25-5.32-5.87-11.76-10.66-14-49.29-23.51-71.44-60.61-69.05-115.14.32-7.17-2.78-16.57-7.72-21.56-46.4-47-45.31-140.2,15.87-176.65,4.12-2.45,7.09-9,8.06-14.15,3.41-18,10.83-32.7,27.5-42.16,4-2.25,7.43-7.51,8.7-12.06,21.4-76.67,72.64-107,148.92-86.82,2.51-3.33,5.51-6.89,8.06-10.75,32.49-49.2,99.88-60.61,139.25-30.79,3.79,2.87,13.12.83,18.77-1.55,51-21.45,99.05-15.73,146.86,13.34l-23.34,21.17c-37.46-19.28-75.72-24.34-114.55-3.93,1.95,16.62,4.59,32.43,5.29,48.32.3,6.72-2.21,14.47-5.9,20.14-2.2,3.38-9.61,5.64-13.9,4.73s-8.46-5.87-11.14-10c-1.64-2.56-.54-7-.39-10.57,1.45-33.31-8.4-53.15-31.18-62.66-24.74-10.33-57.68-2-77.18,19.74-10.42,11.61-16.16,21.62-5.64,38.88,19.72,32.35,5.79,72-25.63,82.63-10.86,3.66-22.6,5.8-27.65-7.5-5.15-13.59,4.11-18.83,16.14-22.17,14.45-4,19.16-18.86,12.4-35.28-8.6-20.89-32.52-32.62-60.28-29.56-34.89,3.83-63.65,33.36-67.24,67.94,15,9.48,30,18,43.92,28.07,8.76,6.34,14.65,16.15,5.52,26.15-8.92,9.76-17.92,5.08-26.48-2.71-6.14-5.59-13-12.25-20.55-14-10.18-2.35-25-4.55-31.07.82s-8.32,22.16-4.53,30.41c8.07,17.58,21.05,32.94,32.25,49.05,1.65,2.37,4.55,3.87,6.88,5.76,8.12,6.59,12.42,15.93,3.48,22.57-5.28,3.92-19.1,4.38-23.29.36-17.14-16.44-32.05-35.19-48.17-53.54-23.62,13.43-36.74,44.06-31.22,77.19,5.59,33.57,29.54,62.4,56.63,68.16,24.33,5.18,34.32-3.7,35.33-29,.22-5.64,6.48-15.29,10.45-15.54,6.06-.39,15.16,4.19,18.36,9.47,10.9,17.9,1.18,48.07-21.32,57.91-17.15,7.51-37.3,8.17-58.61,12.37-9.86,35.77,33.59,82.34,79.85,78.46a96.59,96.59,0,0,0,17.7-3.16c21.35-5.89,23.26-9.2,19.29-30.72-.87-4.71-3.33-10.51-1.56-14.05,3.53-7,8.44-16.63,14.68-18.36,10.68-3,14.82,6.18,16.05,16.49,4.81,40.43,27.41,66.93,64.91,76.91s72.51-2.61,96.39-34c-9.33-11.07-18.15-22.4-28-32.7-2.81-2.93-8.83-4.08-13.27-3.86-8.29.42-17,4.71-24.58,3.07-6-1.3-14.22-8.66-14.82-14.07-.53-4.78,7.6-14.59,12.77-15.22,23.09-2.85,38.84-12.87,48.23-34.88,2.14-5,13.19-6.23,20.14-9.2,2.72,6.53,6.62,12.88,7.7,19.67.64,4-2,10-5.21,13-15.48,14.44-6.05,25.24,4.31,36.2,17.74,18.75,39.72,29.23,65.27,30.11,5.31.19,13.15-6.57,16-12.11q29.78-57.52,57.64-116c5-10.37,10.43-15.55,22.89-14.83,21.41,1.22,42.94.34,67.16.34l-53.23,108.3h67.45l-156.54,209.2Zm-87.34-115.84-5.45-5.28c-8.24,6.9-19.17,12.25-24.2,21-14.16,24.63-32.35,44.18-57.65,57.2-3.44,1.77-7.11,4.55-8.89,7.84-8.16,15.07-15.87,30.39-23.33,45.82-2.09,4.34-2.77,9.35-4.1,14.06l5,2.25Zm-185.12-25.85c2.65,4.85,3,6,3.75,6.8,5.4,6.06,10.87,12.06,16.32,18.08-8.49-1.82-17-3.62-25.48-5.47a3.48,3.48,0,0,1-1.46-1c-12.45-12.51-25.22-6.61-39.17-2,20.15,22,96.28,36.88,120.36,27.3-18.22-13.32-38.35-28.42-59-42.74C3483.8,5096.44,3478.13,5097.92,3471.66,5097.62Zm17.87,86.4c33.56,20,99.64-2.08,112-37.88Zm14.38-23.62-66.25-16.33C3452.11,5168.68,3454.48,5169.25,3503.91,5160.4Z"
        transform="translate(-3274.12 -4579.05)" />
    <path
        d="M3645.81,4819.68v56.18c25.77,4.27,50,14,68.27,34.54,7.1,8,13.05,17.19,18.29,26.52s8.14,20.29-4.25,26.34c-12,5.85-18.2-2-23.57-12.2-19.24-36.64-56.9-52.84-97-42.35-29,7.58-49.91,25.11-63,52-1,2.15-1.79,4.44-2.73,6.64-4.3,10.1-11,16.2-22.41,11.15-11.77-5.19-11.5-15-6.18-24.1,9.86-16.92,20.85-33.17,30.24-47.94-13.63-14.53-28.59-29.42-42.22-45.44-7.24-8.51-9-19.67,2.56-26.29s18.37.89,24.3,10.83c17.35,29.08,43.53,40.78,72.54,31.57,5.86-1.86,12.49-9.16,14.1-15.2,6.29-23.63-.79-38.24-21.34-52-6.35-4.25-13.83-9.52-16.33-16s.72-15,1.42-22.63c7.47,1,15.45.74,22.24,3.46,5.74,2.3,9.5,9.25,15.17,12.09,18.7,9.38,41.87-.9,49.21-21.88,3.85-11,7.88-22.19,21.95-16.86,14.59,5.54,11.12,18.06,6.64,29.05C3684.75,4799.14,3668.24,4813,3645.81,4819.68Z"
        transform="translate(-3274.12 -4579.05)" />
    <path
        d="M4005.54,5343c-41.58.34-73.76-30.54-74.32-71.31-.57-41.83,32.92-76,74.49-75.93,40,0,73.43,33.26,73.57,73.07C4079.43,5310.59,4047.57,5342.63,4005.54,5343Z"
        transform="translate(-3274.12 -4579.05)" />
</svg>